<svg xmlns="http://www.w3.org/2000/svg" xmlns:xlink="http://www.w3.org/1999/xlink" viewBox="0 0 800 800"><defs><style>.cls-1{fill:#fff;}.cls-2{opacity:0.26;fill:url(#Sfumatura_senza_nome_97);}.cls-3{fill:#0d3349;}.cls-4{fill:#ee4036;}.cls-5{fill:#f05a28;}.cls-6{fill:#faaf40;}.cls-7{fill:#eb184d;}.cls-8{fill:#d91c5c;}.cls-9{fill:#be1e2d;}.cls-10{fill:#083857;}</style><radialGradient id="Sfumatura_senza_nome_97" cx="360.86" cy="512.85" r="100.12" gradientTransform="translate(-697.48 369.84) scale(3.04 0.45)" gradientUnits="userSpaceOnUse"><stop offset="0"/><stop offset="1" stop-opacity="0"/></radialGradient></defs><g id="Background"><rect class="cls-1" width="800" height="800"/></g><g id="Objects"><path class="cls-2" d="M704.48,602.62c0,25.1-136.32,45.44-304.48,45.44S95.52,627.72,95.52,602.62,231.84,557.18,400,557.18,704.48,577.52,704.48,602.62Z"/><path class="cls-3" d="M272.61,493.27v2a10.69,10.69,0,0,1,9.18-5.17c6.81,0,12.18,6.26,12.18,13.81v5.58c0,7.28-5.58,13.94-11.9,13.94a10.12,10.12,0,0,1-8.92-5.37v17c0,1.43-2,2.79-4.49,2.79s-4.28-1.36-4.28-2.79V493.27c0-1.64,1.84-2.72,4.15-2.72S272.61,491.63,272.61,493.27ZM285.2,504a6.4,6.4,0,0,0-6.2-6.13,6,6,0,0,0-5.85,6.13v6.8c0,1.43,2.52,5,6,5a6.49,6.49,0,0,0,6.06-6.25Z"/><path class="cls-3" d="M308.45,520.07c0,1.36-2,2.79-4.42,2.79-2.58,0-4.35-1.43-4.35-2.79V474.42c0-1.63,1.77-2.72,4.35-2.72,2.38,0,4.42,1.09,4.42,2.72v20.89a9.35,9.35,0,0,1,8.58-5.17c6.25,0,11.7,6.26,11.7,13.81v16.12c0,1.84-2.25,2.79-4.43,2.79s-4.35-1-4.35-2.79V504a6.3,6.3,0,0,0-5.92-6.13,5.79,5.79,0,0,0-5.58,6.13Z"/><path class="cls-3" d="M363.55,504v5.58c0,7.28-6.87,13.94-14.76,13.94S334,516.87,334,509.53V504c0-7.35,6.67-13.81,14.77-13.81C356.68,490.14,363.55,496.4,363.55,504Zm-8.78,0a6,6,0,1,0-12,0v5.58a6,6,0,1,0,12,0Z"/><path class="cls-3" d="M377.83,511.84c0,2.65.95,3.6,3.8,3.6h2.66a3.71,3.71,0,1,1,0,7.42h-2.66c-8.16,0-12.58-3.33-12.58-11v-33c0-1.64,2.31-2.73,4.35-2.73,2.25,0,4.43,1.09,4.43,2.73v11.7h8c1.43,0,2.25,1.63,2.25,3.2s-.82,3.19-2.25,3.19h-8Z"/><path class="cls-3" d="M420.68,504v5.58c0,7.28-6.87,13.94-14.76,13.94s-14.76-6.6-14.76-13.94V504c0-7.35,6.66-13.81,14.76-13.81C413.81,490.14,420.68,496.4,420.68,504Zm-8.78,0a6,6,0,1,0-12,0v5.58a6,6,0,1,0,12,0Z"/><path class="cls-3" d="M435.37,479.05a4.83,4.83,0,1,1-4.77-4.29A4.61,4.61,0,0,1,435.37,479.05ZM435,493.27v26.8c0,1.36-2,2.79-4.43,2.79s-4.35-1.43-4.35-2.79v-26.8c0-1.64,1.84-2.72,4.35-2.72S435,491.63,435,493.27Z"/><path class="cls-3" d="M470.33,474.42v45.65c0,1.36-1.84,2.79-4.36,2.79-2.17,0-3.94-1.43-3.94-2.79v-2c-1.36,2.79-5.1,5.37-9.46,5.37-6.32,0-11.9-6.66-11.9-13.94V504c0-7.55,5.44-13.81,12.11-13.81a10.06,10.06,0,0,1,8.77,5.17V474.42c0-1.63,2-2.72,4.42-2.72S470.33,472.79,470.33,474.42Zm-20.89,35.11c0,3.12,2.72,6.25,5.92,6.25,3.47,0,6.19-3.6,6.19-5V504a6.14,6.14,0,0,0-6.12-6.13,6.26,6.26,0,0,0-6,6.13Z"/><path class="cls-3" d="M504.88,502.93c0,5.78-3.27,6.05-6.33,6.05H484.74v1c0,4,3.2,6.53,8,6.53,4.49,0,6.33-2.58,8.37-2.58s3.33,2.51,3.33,3.88c0,2.31-4.69,5.64-12,5.64-9.66,0-16.46-5.58-16.46-13.94v-5.79c0-7.34,6.6-13.6,14.9-13.6C498.35,490.14,504.88,495.38,504.88,502.93Zm-10.21.88c1.43,0,2-.34,2-1.83,0-3.2-2.72-5.38-6-5.38-3.06,0-5.92,2-5.92,5.31v1.9Z"/><path class="cls-3" d="M535.62,503.4v16.67c0,1.56-1.84,2.79-4.29,2.79-2.24,0-3.94-1.23-3.94-2.79v-2c-2.45,2.79-5.65,5.37-10.34,5.37s-8.84-2.86-8.84-9.05c0-7.82,6.46-10,15.85-10h2.79v-.88c0-2.93-1.5-6.26-6-6.26-5.24,0-6.12,2.11-7.75,2.11-2,0-3-2.38-3-4.35,0-2.79,6.06-4.9,10.89-4.9C531.61,490.14,535.62,496.53,535.62,503.4ZM526.85,509h-1c-4.55,0-8.84.48-8.84,4.29a3.35,3.35,0,0,0,3.61,3.67c2.79,0,6.26-3.2,6.26-6.53Z"/><path class="cls-3" d="M286.19,542.31c0-2.88-6.16-2-6.16-6.55,0-2.86,2.46-3.83,4.67-3.83,1.13,0,3.64.26,3.64,1.53,0,.44-.3,1.32-1,1.32s-1-.72-2.65-.72c-1.38,0-2.17.55-2.17,1.47,0,2.38,6.16,1.56,6.16,6.53,0,2.74-1.92,4.16-4.57,4.16s-4.43-1.26-4.43-2.38c0-.54.5-1.34,1.09-1.34.79,0,1.31,1.48,3.26,1.48C285.2,544,286.19,543.46,286.19,542.31Z"/><path class="cls-3" d="M299.17,546.05c-.56,0-1.1-.27-1.1-.79V532.79c0-.54.62-.77,1.25-.77s1.25.23,1.25.77v11.07h4.68c.5,0,.75.54.75,1.1s-.25,1.09-.75,1.09Z"/><path class="cls-3" d="M314.89,541.77v-5.35c0-3.21,1.95-4.4,4.49-4.4s4.51,1.19,4.51,4.4v5.35c0,3.2-2,4.4-4.51,4.4S314.89,545,314.89,541.77Zm6.5-5.35c0-1.52-.77-2.21-2-2.21s-2,.69-2,2.21v5.35c0,1.52.73,2.21,2,2.21s2-.69,2-2.21Z"/><path class="cls-3" d="M338.05,534.21c-1.29,0-2,.71-2,2.21v5.35c0,1.5.72,2.21,2,2.21s2-.71,2-2.21v-1.13h-1.55c-.5,0-.77-.48-.77-1s.27-1,.77-1h3.26a.78.78,0,0,1,.79.81v2.28c0,3.2-2,4.4-4.51,4.4s-4.49-1.2-4.49-4.4v-5.35c0-3.21,2-4.4,4.41-4.4,2.65,0,4.59,1.38,4.59,3.69,0,1-.42,1.19-1.25,1.19-.67,0-1.23-.19-1.25-.79A1.76,1.76,0,0,0,338.05,534.21Z"/><path class="cls-3" d="M351.22,545s0-.11,0-.19L355,532.75c.17-.58.88-.84,1.59-.84s1.44.26,1.61.84l3.71,12.07c0,.08,0,.14,0,.19,0,.6-.9,1-1.57,1-.42,0-.75-.13-.84-.5l-.73-2.55h-4.4l-.73,2.55c-.09.37-.42.5-.84.5C352.12,546.05,351.22,545.63,351.22,545Zm7-4-1.67-5.89L354.88,541Z"/><path class="cls-3" d="M377.53,545.26l-4.13-7.71v7.71c0,.52-.63.79-1.25.79s-1.24-.27-1.24-.79V532.81c0-.54.61-.79,1.24-.79.91,0,1.27.19,1.87,1.33l3.7,7.15v-7.71c0-.54.61-.77,1.25-.77s1.24.23,1.24.77v12.47c0,.52-.63.79-1.24.79A1.48,1.48,0,0,1,377.53,545.26Z"/><path class="cls-3" d="M398.39,534.21c-1.29,0-2,.71-2,2.21v5.35c0,1.5.73,2.21,2,2.21s2-.71,2-2.21v-1.13h-1.55c-.5,0-.77-.48-.77-1s.27-1,.77-1h3.26a.78.78,0,0,1,.79.81v2.28c0,3.2-2,4.4-4.51,4.4s-4.49-1.2-4.49-4.4v-5.35c0-3.21,2-4.4,4.41-4.4,2.65,0,4.59,1.38,4.59,3.69,0,1-.42,1.19-1.25,1.19-.67,0-1.23-.19-1.25-.79A1.76,1.76,0,0,0,398.39,534.21Z"/><path class="cls-3" d="M412.38,541.77v-5.35c0-3.21,2-4.4,4.49-4.4s4.51,1.19,4.51,4.4v5.35c0,3.2-2,4.4-4.51,4.4S412.38,545,412.38,541.77Zm6.51-5.35c0-1.52-.77-2.21-2-2.21s-2,.69-2,2.21v5.35c0,1.52.73,2.21,2,2.21s2-.69,2-2.21Z"/><path class="cls-3" d="M433.68,538.05h2.92c.5,0,.79.48.79,1a.86.86,0,0,1-.79,1h-2.92v3.86h5.44c.49,0,.78.52.78,1.11s-.25,1.08-.78,1.08h-6.84c-.55,0-1.09-.27-1.09-.79V532.81c0-.52.54-.79,1.09-.79h6.84c.53,0,.78.56.78,1.08s-.29,1.11-.78,1.11h-5.44Z"/><path class="cls-3" d="M454.85,542.31c0-2.88-6.16-2-6.16-6.55,0-2.86,2.46-3.83,4.67-3.83,1.13,0,3.64.26,3.64,1.53,0,.44-.3,1.32-1,1.32s-1-.72-2.64-.72c-1.39,0-2.17.55-2.17,1.47,0,2.38,6.16,1.56,6.16,6.53,0,2.74-1.92,4.16-4.57,4.16s-4.43-1.26-4.43-2.38c0-.54.5-1.34,1.09-1.34.79,0,1.31,1.48,3.26,1.48C453.86,544,454.85,543.46,454.85,542.31Z"/><path class="cls-3" d="M477.38,539.76h-4.31v5.5c0,.52-.64.79-1.25.79s-1.25-.27-1.25-.79V532.79c0-.54.62-.77,1.25-.77s1.25.23,1.25.77v5h4.31v-5c0-.54.62-.77,1.25-.77s1.25.23,1.25.77v12.47c0,.52-.63.79-1.25.79s-1.25-.27-1.25-.79Z"/><path class="cls-3" d="M492.35,538.05h2.92c.5,0,.79.48.79,1a.86.86,0,0,1-.79,1h-2.92v3.86h5.44c.49,0,.78.52.78,1.11s-.25,1.08-.78,1.08H491c-.55,0-1.09-.27-1.09-.79V532.81c0-.52.54-.79,1.09-.79h6.84c.53,0,.78.56.78,1.08s-.29,1.11-.78,1.11h-5.44Z"/><path class="cls-3" d="M507.71,532.79a.78.78,0,0,1,.8-.77h3.8c2.52,0,4.55,1,4.55,4,0,2.21-1.07,3.4-2.51,3.84l2.51,4.66a.51.51,0,0,1,.1.31,1.63,1.63,0,0,1-1.56,1.31,1,1,0,0,1-.86-.6l-2.73-5.3H510.2v5c0,.52-.61.79-1.24.79s-1.25-.27-1.25-.79Zm2.49,1.42v4.09h2.11a2,2,0,1,0,0-4.09Z"/><path class="cls-3" d="M528.82,538.05h2.92c.5,0,.78.48.78,1a.86.86,0,0,1-.78,1h-2.92v3.86h5.43c.5,0,.79.52.79,1.11s-.25,1.08-.79,1.08h-6.83c-.56,0-1.1-.27-1.1-.79V532.81c0-.52.54-.79,1.1-.79h6.83c.54,0,.79.56.79,1.08s-.29,1.11-.79,1.11h-5.43Z"/><path class="cls-4" d="M373.71,295.54h47.45l-24.1-41.74a73.9,73.9,0,0,0-63.66,41.74Z"/><path class="cls-5" d="M426.29,295.54,450,336.64l19.57-33.9a73.93,73.93,0,0,0-67.42-49Z"/><path class="cls-6" d="M428.86,382.19h24.25a189.32,189.32,0,0,0,10.94-17.66,75.88,75.88,0,0,0,9.86-36.9,74,74,0,0,0-2.51-19.12l-18.81,32.57h0Z"/><path class="cls-7" d="M373.7,386.63h0L350,345.52l-12.52,21.69c16.91,29.66,21.53,24,24.41,41.23a52.51,52.51,0,0,0,2.35,9.69,4,4,0,0,0-2.31,3.47v2.74c0,2.27,2.23,4.11,5,4.11h31Z"/><path class="cls-8" d="M449.82,386.63h-71L403,428.45h30.16c2.74,0,5-1.84,5-4.11V421.6a4,4,0,0,0-2.32-3.48,52.38,52.38,0,0,0,2.35-9.68C440.1,396.66,442.88,395.56,449.82,386.63Z"/><path class="cls-9" d="M347.41,341.08h0L371.14,300H331.46a73.65,73.65,0,0,0-5.37,27.65,75.48,75.48,0,0,0,8.85,35l12.46-21.59Z"/><path class="cls-7" d="M429.73,433.26H370.26a4.3,4.3,0,0,0-4.46,4.12v2.74a4.3,4.3,0,0,0,4.46,4.11h59.47a4.3,4.3,0,0,0,4.46-4.11v-2.74A4.3,4.3,0,0,0,429.73,433.26Z"/><path class="cls-8" d="M400.39,462.74c11.6,0,24.85-5.47,24.85-13.71h-49.7C375.54,457.27,388.79,462.74,400.39,462.74Z"/><path class="cls-10" d="M410.38,355.39a5.67,5.67,0,0,1,10.56-2.88A23.71,23.71,0,0,0,422.42,333a8.27,8.27,0,1,1-8.09-10,8,8,0,0,1,1.39.13,23.85,23.85,0,1,0-2,37.39A5.68,5.68,0,0,1,410.38,355.39Z"/></g></svg>